<?xml version="1.0" standalone="no"?><!DOCTYPE svg PUBLIC "-//W3C//DTD SVG 1.1//EN" "http://www.w3.org/Graphics/SVG/1.1/DTD/svg11.dtd"><svg t="1556182209816" class="icon" style="" viewBox="0 0 1024 1024" version="1.1" xmlns="http://www.w3.org/2000/svg" p-id="3760" xmlns:xlink="http://www.w3.org/1999/xlink" width="48" height="48"><defs><style type="text/css"></style></defs><path d="M512 0C229.180952 0 0 229.180952 0 512s229.180952 512 512 512 512-229.180952 512-512S794.819048 0 512 0z m-19.504762 909.409524c-41.447619 0-75.580952-41.447619-75.580952-95.085714 0-51.2 34.133333-95.085714 75.580952-95.085715 41.447619 0 75.580952 41.447619 75.580952 95.085715s-34.133333 95.085714-75.580952 95.085714z m80.457143-314.514286c0 48.761905-24.380952 87.771429-56.076191 87.771429h-12.190476c-31.695238 0-56.07619-39.009524-56.07619-87.771429L414.47619 241.371429c0-48.761905 24.380952-87.771429 56.076191-87.771429h78.019048c31.695238 0 56.07619 39.009524 56.07619 87.771429l-31.695238 353.523809z" fill="#FFA605" p-id="3761"></path></svg>