<?xml version="1.0" standalone="no"?><!DOCTYPE svg PUBLIC "-//W3C//DTD SVG 1.1//EN" "http://www.w3.org/Graphics/SVG/1.1/DTD/svg11.dtd"><svg t="1556182075037" class="icon" style="" viewBox="0 0 1024 1024" version="1.1" xmlns="http://www.w3.org/2000/svg" p-id="2317" xmlns:xlink="http://www.w3.org/1999/xlink" width="48" height="48"><defs><style type="text/css"></style></defs><path d="M828.928 195.072C653.824 20.48 370.176 20.48 195.072 195.072c-175.104 175.104-175.104 458.24 0 633.344s458.24 175.104 633.344 0c175.616-174.592 175.616-458.24 0.512-633.344zM727.04 646.656c22.016 22.016 22.016 58.368 0 80.384-11.264 11.264-25.6 16.896-40.448 16.896-14.336 0-29.184-5.632-40.448-16.896L512 592.384 377.344 727.04c-11.264 11.264-25.6 16.896-40.448 16.896-14.336 0-29.184-5.632-40.448-16.896-22.016-22.016-22.016-58.368 0-80.384L431.616 512 296.96 377.344c-22.016-22.016-22.016-58.368 0-80.384s58.368-22.016 80.384 0L512 431.616 646.656 296.96c22.016-22.016 58.368-22.016 80.384 0s22.016 58.368 0 80.384L592.384 512l134.656 134.656z" fill="#FF4D35" p-id="2318"></path></svg>